<?xml version="1.0" encoding="utf-8"?>
<!-- Generator: Adobe Illustrator 23.0.1, SVG Export Plug-In . SVG Version: 6.00 Build 0)  -->
<svg version="1.1" id="Layer_1" xmlns="http://www.w3.org/2000/svg" xmlns:xlink="http://www.w3.org/1999/xlink" x="0px" y="0px"
	 viewBox="0 0 128 128" style="enable-background:new 0 0 128 128;" xml:space="preserve">
<style type="text/css">
	.st0{display:none;}
	.st1{display:inline;fill:#CBEAF1;}
	.st2{fill:#52CCCC;}
	.st3{fill:#FFFFFF;}
	.st4{display:inline;fill:#52CCCC;}
	.st5{display:inline;fill:none;stroke:#52CCCC;stroke-width:2;stroke-miterlimit:10;}
</style>
<g class="st0">
	<polygon class="st1" points="60.56,2 50.95,2 60.56,37.84 	"/>
	<polygon class="st1" points="43.07,47.94 2,6.87 2,24.23 	"/>
	<polygon class="st1" points="47.94,43.07 24.23,2 6.87,2 	"/>
	<polygon class="st1" points="39.62,53.9 2,32.18 2,43.82 	"/>
	<polygon class="st1" points="37.84,60.56 2,50.95 2,60.56 	"/>
	<polygon class="st1" points="53.9,39.62 43.82,2 32.18,2 	"/>
	<polygon class="st1" points="84.93,47.94 126,24.23 126,6.87 	"/>
	<polygon class="st1" points="80.06,43.07 121.13,2 103.77,2 	"/>
	<polygon class="st1" points="37.84,67.44 2,67.44 2,77.05 	"/>
	<polygon class="st1" points="74.1,39.62 95.82,2 84.18,2 	"/>
	<polygon class="st1" points="67.44,37.84 77.05,2 67.44,2 	"/>
	<polygon class="st1" points="126,32.18 88.38,53.9 126,43.82 	"/>
	<path class="st1" d="M88.38,74.1"/>
	<path class="st1" d="M84.93,80.06"/>
	<polygon class="st1" points="90.16,67.44 126,77.05 126,67.44 	"/>
	<polygon class="st1" points="90.16,60.56 126,60.56 126,50.95 	"/>
	<path class="st1" d="M43.07,80.06"/>
	<path class="st1" d="M39.62,74.1"/>
</g>
<g>
	<polygon class="st2" points="2,74.64 6.99,65.66 19.77,57.07 28.56,43.49 40.74,38.5 46.33,32.11 54.12,38.1 68.69,15.54 
		82.87,40.3 89.46,44.89 95.05,37.3 101.24,47.69 110.82,51.88 116.62,63.86 126,74.64 	"/>
	<polygon class="st3" points="12.18,66.06 24.56,60.67 33.75,51.28 49.72,47.69 52.52,40.3 46.93,36.3 42.33,41.9 30.55,47.09 
		22.97,58.67 	"/>
	<polygon class="st3" points="68.69,21.73 57.31,38.7 53.12,50.28 29.95,63.86 54.52,55.67 60.31,65.06 61.3,52.68 76.68,51.28 
		67.49,46.49 70.09,25.52 	"/>
	<polygon class="st3" points="70.49,63.46 83.87,58.07 94.45,40.9 98.44,49.08 104.43,52.08 93.25,53.28 89.46,61.66 	"/>
</g>
<g>
	<path class="st2" d="M7.79,110.17V92.99h5.57c2.11,0,3.48,0.09,4.13,0.26c0.98,0.26,1.81,0.82,2.47,1.68s1,1.98,1,3.35
		c0,1.05-0.19,1.94-0.57,2.66s-0.87,1.28-1.46,1.69s-1.19,0.68-1.8,0.81c-0.83,0.16-2.03,0.25-3.6,0.25h-2.26v6.48H7.79z
		 M11.26,95.9v4.88h1.9c1.37,0,2.28-0.09,2.74-0.27s0.82-0.46,1.08-0.84s0.39-0.83,0.39-1.34c0-0.63-0.18-1.14-0.55-1.55
		s-0.83-0.66-1.39-0.76c-0.41-0.08-1.25-0.12-2.5-0.12H11.26z"/>
	<path class="st2" d="M23.81,110.17V92.99h7.3c1.84,0,3.17,0.15,4,0.46s1.5,0.86,2,1.65s0.75,1.69,0.75,2.71
		c0,1.29-0.38,2.35-1.14,3.19s-1.89,1.37-3.4,1.59c0.75,0.44,1.37,0.92,1.86,1.44s1.15,1.45,1.97,2.79l2.1,3.35h-4.15l-2.51-3.74
		c-0.89-1.34-1.5-2.18-1.83-2.53s-0.68-0.59-1.04-0.71S28.78,103,27.98,103h-0.7v7.17H23.81z M27.28,100.25h2.57
		c1.66,0,2.7-0.07,3.12-0.21s0.74-0.38,0.97-0.73s0.35-0.77,0.35-1.29c0-0.58-0.15-1.04-0.46-1.4s-0.74-0.58-1.31-0.67
		c-0.28-0.04-1.13-0.06-2.53-0.06h-2.71V100.25z"/>
	<path class="st2" d="M40.43,101.68c0-1.75,0.26-3.22,0.79-4.41c0.39-0.88,0.92-1.66,1.6-2.36s1.42-1.21,2.22-1.55
		c1.07-0.45,2.3-0.68,3.7-0.68c2.53,0,4.56,0.79,6.08,2.36s2.28,3.75,2.28,6.55c0,2.77-0.75,4.94-2.26,6.51s-3.52,2.35-6.05,2.35
		c-2.55,0-4.59-0.78-6.09-2.34S40.43,104.42,40.43,101.68z M44,101.57c0,1.95,0.45,3.42,1.35,4.42s2.04,1.51,3.42,1.51
		s2.52-0.5,3.4-1.49s1.33-2.49,1.33-4.48c0-1.97-0.43-3.44-1.29-4.41s-2.01-1.45-3.44-1.45s-2.58,0.49-3.46,1.47S44,99.59,44,101.57
		z"/>
	<path class="st2" d="M64.18,110.17l-6.14-17.18h3.76l4.35,12.71l4.21-12.71h3.68l-6.15,17.18H64.18z"/>
	<path class="st2" d="M75.7,110.17V92.99h3.47v17.18H75.7z"/>
	<path class="st2" d="M82.46,92.99h6.34c1.43,0,2.52,0.11,3.27,0.33c1.01,0.3,1.87,0.82,2.59,1.58s1.27,1.69,1.64,2.78
		s0.56,2.45,0.56,4.06c0,1.41-0.18,2.63-0.53,3.66c-0.43,1.25-1.04,2.26-1.84,3.04c-0.6,0.59-1.41,1.04-2.44,1.37
		c-0.77,0.24-1.79,0.36-3.07,0.36h-6.53V92.99z M85.93,95.9v11.38h2.59c0.97,0,1.67-0.05,2.1-0.16c0.56-0.14,1.03-0.38,1.4-0.71
		s0.67-0.89,0.91-1.66s0.35-1.82,0.35-3.15s-0.12-2.35-0.35-3.06s-0.56-1.27-0.98-1.66s-0.96-0.67-1.61-0.81
		c-0.48-0.11-1.43-0.16-2.85-0.16H85.93z"/>
	<path class="st2" d="M99.7,110.17V92.99h3.47v17.18H99.7z"/>
	<path class="st2" d="M121.96,110.17h-3.77l-1.5-3.9h-6.87l-1.42,3.9h-3.68l6.69-17.18h3.67L121.96,110.17z M115.58,103.37
		L113.21,97l-2.32,6.38H115.58z"/>
</g>
<g class="st0">
	<path class="st4" d="M10.75,114.59v-18.3h10.39c1.98,0,2.98,0.77,2.98,2.32v6.82c0,1.55-1,2.32-2.98,2.32h-4.44v6.84H10.75z
		 M18.17,100.93c0-0.03-0.03-0.06-0.06-0.06h-1.4v2.55h1.4c0.03,0,0.06-0.03,0.06-0.06V100.93z"/>
	<path class="st4" d="M35.69,120.29c-1.98,0-2.98-0.74-2.98-2.26v-10.71c0-0.03-0.03-0.06-0.06-0.06h-1.4v7.33H25.3v-18.3h10.39
		c1.98,0,2.95,0.77,2.95,2.32v5.33c0,0.89-0.49,1.37-1.46,1.49c1,0.14,1.49,0.63,1.49,1.52v8.73c0,0.03,0.03,0.06,0.06,0.06H61v4.55
		H35.69z M32.72,100.93c0-0.03-0.03-0.06-0.06-0.06h-1.4v2.75h1.4c0.03,0,0.06-0.03,0.06-0.06V100.93z"/>
	<path class="st4" d="M63.19,114.59l-2.95-18.3h6.04l1.52,11.05l1.49-11.05h5.81l-3.01,18.3H63.19z"/>
	<path class="st4" d="M75.99,114.59v-18.3h5.96v18.3H75.99z"/>
	<path class="st4" d="M86.36,114.59c-2.06,0-2.98-0.74-2.98-2.26V98.61c0-1.55,1-2.32,2.98-2.32h4.44v-4.58h5.96v22.88H86.36z
		 M90.8,100.87h-1.4c-0.03,0-0.06,0.03-0.06,0.06v9.05c0,0.03,0.03,0.06,0.06,0.06h1.4V100.87z"/>
	<path class="st4" d="M98.24,114.59v-18.3h5.96v18.3H98.24z"/>
	<path class="st4" d="M108.61,114.59c-1.98,0-2.98-0.74-2.98-2.26v-6.9c0-1.52,1-2.26,2.98-2.26h4.44v-2.23
		c0-0.03-0.03-0.06-0.06-0.06h-1.35c-0.03,0-0.06,0.03-0.06,0.06v1.06h-5.96v-3.38c0-1.55,1-2.32,2.98-2.32h7.42
		c1.98,0,2.98,0.77,2.98,2.32v15.98H108.61z M113.04,107.17h-1.41c-0.03,0-0.06,0.03-0.06,0.06v2.75c0,0.03,0.03,0.06,0.06,0.06
		h1.41V107.17z"/>
</g>
<g class="st0">
	<path class="st5" d="M57.29,104.29l-6.58-6.58c-0.39-0.39-1.03-0.39-1.42,0l-6.58,6.58c-0.39,0.39-0.39,1.03,0,1.42l6.58,6.58
		c0.39,0.39,1.03,0.39,1.42,0l6.58-6.58C57.68,105.32,57.68,104.68,57.29,104.29z"/>
	<line class="st5" x1="52" y1="99" x2="55" y2="96"/>
	<line class="st5" x1="54" y1="101" x2="57" y2="98"/>
	<line class="st5" x1="56" y1="103" x2="59" y2="100"/>
	<line class="st5" x1="41" y1="110" x2="44" y2="107"/>
	<line class="st5" x1="43" y1="112" x2="46" y2="109"/>
	<line class="st5" x1="45" y1="114" x2="48" y2="111"/>
	<line class="st5" x1="56" y1="107" x2="59" y2="110"/>
	<line class="st5" x1="54" y1="109" x2="57" y2="112"/>
	<line class="st5" x1="52" y1="111" x2="55" y2="114"/>
	<line class="st5" x1="45" y1="96" x2="48" y2="99"/>
	<line class="st5" x1="43" y1="98" x2="46" y2="101"/>
	<line class="st5" x1="41" y1="100" x2="44" y2="103"/>
</g>
</svg>
